<svg xmlns="http://www.w3.org/2000/svg" viewBox="0 0 560 768" width="100%" style="max-width:560px">
  <style>
    .f-bg { fill: #0f172a; }
    .s-bg { stroke: #0f172a; }
    .f-surface { fill: #1e293b; }
    .s-surface { stroke: #1e293b; }
    .f-raised { fill: #334155; }
    .s-raised { stroke: #334155; }
    .f-subtle { fill: #475569; }
    .s-subtle { stroke: #475569; }
    .f-text { fill: #f8fafc; }
    .s-text { stroke: #f8fafc; }
    .f-muted { fill: #94a3b8; }
    .s-muted { stroke: #94a3b8; }
    .f-faint { fill: #475569; }
    .s-faint { stroke: #475569; }
    .f-accent { fill: #38bdf8; }
    .s-accent { stroke: #38bdf8; }
    .f-success { fill: #4ade80; }
    .s-success { stroke: #4ade80; }
    .f-warning { fill: #fbbf24; }
    .s-warning { stroke: #fbbf24; }
    .f-danger { fill: #f87171; }
    .s-danger { stroke: #f87171; }
    .f-accentBg { fill: #0c4a6e; }
    .s-accentBg { stroke: #0c4a6e; }
    .f-successBg { fill: #166534; }
    .s-successBg { stroke: #166534; }
    .f-warningBg { fill: #78350f; }
    .s-warningBg { stroke: #78350f; }
    .f-dangerBg { fill: #7f1d1d; }
    .s-dangerBg { stroke: #7f1d1d; }
    @media (prefers-color-scheme: light) {
      .f-bg { fill: #ffffff; }
      .s-bg { stroke: #ffffff; }
      .f-surface { fill: #f1f5f9; }
      .s-surface { stroke: #f1f5f9; }
      .f-raised { fill: #e2e8f0; }
      .s-raised { stroke: #e2e8f0; }
      .f-subtle { fill: #cbd5e1; }
      .s-subtle { stroke: #cbd5e1; }
      .f-text { fill: #0f172a; }
      .s-text { stroke: #0f172a; }
      .f-muted { fill: #64748b; }
      .s-muted { stroke: #64748b; }
      .f-faint { fill: #94a3b8; }
      .s-faint { stroke: #94a3b8; }
      .f-accent { fill: #0284c7; }
      .s-accent { stroke: #0284c7; }
      .f-success { fill: #16a34a; }
      .s-success { stroke: #16a34a; }
      .f-warning { fill: #d97706; }
      .s-warning { stroke: #d97706; }
      .f-danger { fill: #dc2626; }
      .s-danger { stroke: #dc2626; }
      .f-accentBg { fill: #e0f2fe; }
      .s-accentBg { stroke: #e0f2fe; }
      .f-successBg { fill: #dcfce7; }
      .s-successBg { stroke: #dcfce7; }
      .f-warningBg { fill: #fef3c7; }
      .s-warningBg { stroke: #fef3c7; }
      .f-dangerBg { fill: #fee2e2; }
      .s-dangerBg { stroke: #fee2e2; }
    }
  </style>
  <g transform="translate(0, 0)">
    <rect width="560" height="768" class="f-bg"/>
    <g transform="translate(40, 40)">
      <g transform="translate(0, 0)">
        <g transform="translate(0, 2.5)">
          <rect width="4" height="52" rx="2" class="f-accent"/>
        </g>
        <g transform="translate(18, 0)">
          <g transform="translate(0, 0)">
            <text font-size="26" font-weight="700" font-family="system-ui, sans-serif" text-anchor="start" class="f-text"><tspan x="0" dy="26">frame-svg</tspan></text>
          </g>
          <g transform="translate(0, 40)">
            <text font-size="12" font-weight="normal" font-family="system-ui, sans-serif" text-anchor="start" class="f-muted"><tspan x="0" dy="12">SVG layout engine for developers</tspan></text>
          </g>
        </g>
      </g>
      <g transform="translate(0, 85)">
        <text font-size="13" font-weight="normal" font-family="system-ui, sans-serif" text-anchor="start" class="f-muted"><tspan x="0" dy="13">Write layouts in JSX-like syntax and get pixel-perfect SVG — for README cards,</tspan><tspan x="0" dy="18">documentation graphics, and design assets. No browser, no canvas, just code.</tspan></text>
      </g>
      <g transform="translate(0, 149)">
        <g transform="translate(0, 0)">
          <rect width="153.33333333333334" height="116" rx="10" class="f-surface s-subtle" stroke-width="1"/>
          <g transform="translate(16, 16)">
            <g transform="translate(0, 0)">
              <text font-size="13" font-weight="700" font-family="system-ui, sans-serif" text-anchor="start" class="f-text"><tspan x="0" dy="13">README cards</tspan></text>
            </g>
            <g transform="translate(0, 24)">
              <text font-size="11" font-weight="normal" font-family="system-ui, sans-serif" text-anchor="start" class="f-muted"><tspan x="0" dy="11">Profile cards, GitHub</tspan><tspan x="0" dy="15">stats, repo badges.</tspan><tspan x="0" dy="15">Embed anywhere as a</tspan><tspan x="0" dy="15">single image.</tspan></text>
            </g>
          </g>
        </g>
        <g transform="translate(163.33333333333334, 0)">
          <rect width="153.33333333333334" height="116" rx="10" class="f-surface s-accent" stroke-width="1"/>
          <g transform="translate(16, 16)">
            <g transform="translate(0, 0)">
              <text font-size="13" font-weight="700" font-family="system-ui, sans-serif" text-anchor="start" class="f-accent"><tspan x="0" dy="13">Docs diagrams</tspan></text>
            </g>
            <g transform="translate(0, 24)">
              <text font-size="11" font-weight="normal" font-family="system-ui, sans-serif" text-anchor="start" class="f-muted"><tspan x="0" dy="11">Architecture charts, file</tspan><tspan x="0" dy="15">trees, API schemas.</tspan><tspan x="0" dy="15">Code-maintained, always</tspan><tspan x="0" dy="15">in sync.</tspan></text>
            </g>
          </g>
        </g>
        <g transform="translate(326.6666666666667, 0)">
          <rect width="153.33333333333334" height="116" rx="10" class="f-surface s-subtle" stroke-width="1"/>
          <g transform="translate(16, 16)">
            <g transform="translate(0, 0)">
              <text font-size="13" font-weight="700" font-family="system-ui, sans-serif" text-anchor="start" class="f-text"><tspan x="0" dy="13">Design tokens</tspan></text>
            </g>
            <g transform="translate(0, 24)">
              <text font-size="11" font-weight="normal" font-family="system-ui, sans-serif" text-anchor="start" class="f-muted"><tspan x="0" dy="11">Color palettes, type</tspan><tspan x="0" dy="15">scales, component</tspan><tspan x="0" dy="15">previews. Your design</tspan><tspan x="0" dy="15">system in code.</tspan></text>
            </g>
          </g>
        </g>
      </g>
      <g transform="translate(0, 293)">
        <g transform="translate(0, 0)">
          <text font-size="11" font-weight="normal" font-family="system-ui, sans-serif" text-anchor="start" class="f-faint"><tspan x="0" dy="11">Project structure</tspan></text>
        </g>
        <g transform="translate(0, 25)">
          <rect width="480" height="316" rx="10" class="f-surface"/>
          <g transform="translate(16, 14)">
            <g transform="translate(0, 0)">
              <g transform="translate(0, 2) scale(0.5833333333333334)" class="s-accent" stroke-width="3.429" stroke-linecap="round" stroke-linejoin="round">
                <path d="M22 19a2 2 0 0 1-2 2H4a2 2 0 0 1-2-2V5a2 2 0 0 1 2-2h5l2 3h9a2 2 0 0 1 2 2z" fill="none"/>
              </g>
              <g transform="translate(22, 0)">
                <text font-size="13" font-weight="700" font-family="system-ui, sans-serif" text-anchor="start" class="f-text"><tspan x="0" dy="13">frame-svg/</tspan></text>
              </g>
            </g>
            <g transform="translate(0, 24)">
              <g transform="translate(0, 9)"/>
              <g transform="translate(18, 2.5) scale(0.5416666666666666)" class="s-accent" stroke-width="3.692" stroke-linecap="round" stroke-linejoin="round">
                <path d="M22 19a2 2 0 0 1-2 2H4a2 2 0 0 1-2-2V5a2 2 0 0 1 2-2h5l2 3h9a2 2 0 0 1 2 2z" fill="none"/>
              </g>
              <g transform="translate(37, 0)">
                <text font-size="13" font-weight="600" font-family="system-ui, sans-serif" text-anchor="start" class="f-text"><tspan x="0" dy="13">src/</tspan></text>
              </g>
            </g>
            <g transform="translate(0, 48)">
              <rect width="448" height="24" rx="4" class="f-accentBg"/>
              <g transform="translate(0, 3)">
                <g transform="translate(0, 9)"/>
                <g transform="translate(36, 2.5) scale(0.5416666666666666)" class="s-accent" stroke-width="3.692" stroke-linecap="round" stroke-linejoin="round">
                  <path d="M13 2H6a2 2 0 0 0-2 2v16a2 2 0 0 0 2 2h12a2 2 0 0 0 2-2V9z" fill="none"/>
                  <path d="M13 2v7h7" fill="none"/>
                </g>
                <g transform="translate(55, 0)">
                  <text font-size="13" font-weight="400" font-family="system-ui, sans-serif" text-anchor="start" class="f-accent"><tspan x="0" dy="13">main.frame</tspan></text>
                </g>
                <g transform="translate(197, 1.5)">
                  <text font-size="11" font-weight="normal" font-family="system-ui, sans-serif" text-anchor="start" class="f-accent"><tspan x="0" dy="11">← you are here</tspan></text>
                </g>
              </g>
            </g>
            <g transform="translate(0, 78)">
              <g transform="translate(0, 9)"/>
              <g transform="translate(36, 2.5) scale(0.5416666666666666)" class="s-accent" stroke-width="3.692" stroke-linecap="round" stroke-linejoin="round">
                <path d="M22 19a2 2 0 0 1-2 2H4a2 2 0 0 1-2-2V5a2 2 0 0 1 2-2h5l2 3h9a2 2 0 0 1 2 2z" fill="none"/>
              </g>
              <g transform="translate(55, 0)">
                <text font-size="13" font-weight="600" font-family="system-ui, sans-serif" text-anchor="start" class="f-text"><tspan x="0" dy="13">frames/</tspan></text>
              </g>
            </g>
            <g transform="translate(0, 102)">
              <g transform="translate(0, 9)"/>
              <g transform="translate(18, 2.5) scale(0.5416666666666666)" class="s-accent" stroke-width="3.692" stroke-linecap="round" stroke-linejoin="round">
                <path d="M22 19a2 2 0 0 1-2 2H4a2 2 0 0 1-2-2V5a2 2 0 0 1 2-2h5l2 3h9a2 2 0 0 1 2 2z" fill="none"/>
              </g>
              <g transform="translate(37, 0)">
                <text font-size="13" font-weight="600" font-family="system-ui, sans-serif" text-anchor="start" class="f-text"><tspan x="0" dy="13">components/</tspan></text>
              </g>
            </g>
            <g transform="translate(0, 126)">
              <g transform="translate(0, 9)"/>
              <g transform="translate(18, 2.5) scale(0.5416666666666666)" class="s-accent" stroke-width="3.692" stroke-linecap="round" stroke-linejoin="round">
                <path d="M22 19a2 2 0 0 1-2 2H4a2 2 0 0 1-2-2V5a2 2 0 0 1 2-2h5l2 3h9a2 2 0 0 1 2 2z" fill="none"/>
              </g>
              <g transform="translate(37, 0)">
                <text font-size="13" font-weight="600" font-family="system-ui, sans-serif" text-anchor="start" class="f-text"><tspan x="0" dy="13">core/</tspan></text>
              </g>
            </g>
            <g transform="translate(0, 150)">
              <g transform="translate(0, 9)"/>
              <g transform="translate(18, 2.5) scale(0.5416666666666666)" class="s-accent" stroke-width="3.692" stroke-linecap="round" stroke-linejoin="round">
                <path d="M22 19a2 2 0 0 1-2 2H4a2 2 0 0 1-2-2V5a2 2 0 0 1 2-2h5l2 3h9a2 2 0 0 1 2 2z" fill="none"/>
              </g>
              <g transform="translate(37, 0)">
                <text font-size="13" font-weight="600" font-family="system-ui, sans-serif" text-anchor="start" class="f-text"><tspan x="0" dy="13">plugins/</tspan></text>
              </g>
            </g>
            <g transform="translate(0, 174)">
              <g transform="translate(0, 9)"/>
              <g transform="translate(18, 2.5) scale(0.5416666666666666)" class="s-accent" stroke-width="3.692" stroke-linecap="round" stroke-linejoin="round">
                <path d="M22 19a2 2 0 0 1-2 2H4a2 2 0 0 1-2-2V5a2 2 0 0 1 2-2h5l2 3h9a2 2 0 0 1 2 2z" fill="none"/>
              </g>
              <g transform="translate(37, 0)">
                <text font-size="13" font-weight="600" font-family="system-ui, sans-serif" text-anchor="start" class="f-text"><tspan x="0" dy="13">scripts/</tspan></text>
              </g>
            </g>
            <g transform="translate(0, 198)">
              <g transform="translate(0, 9)"/>
              <g transform="translate(18, 2.5) scale(0.5416666666666666)" class="s-accent" stroke-width="3.692" stroke-linecap="round" stroke-linejoin="round">
                <path d="M22 19a2 2 0 0 1-2 2H4a2 2 0 0 1-2-2V5a2 2 0 0 1 2-2h5l2 3h9a2 2 0 0 1 2 2z" fill="none"/>
              </g>
              <g transform="translate(37, 0)">
                <text font-size="13" font-weight="600" font-family="system-ui, sans-serif" text-anchor="start" class="f-text"><tspan x="0" dy="13">themes/</tspan></text>
              </g>
            </g>
            <g transform="translate(0, 222)">
              <g transform="translate(0, 9)"/>
              <g transform="translate(18, 2.5) scale(0.5416666666666666)" class="s-muted" stroke-width="3.692" stroke-linecap="round" stroke-linejoin="round">
                <path d="M13 2H6a2 2 0 0 0-2 2v16a2 2 0 0 0 2 2h12a2 2 0 0 0 2-2V9z" fill="none"/>
                <path d="M13 2v7h7" fill="none"/>
              </g>
              <g transform="translate(37, 0)">
                <text font-size="13" font-weight="400" font-family="system-ui, sans-serif" text-anchor="start" class="f-muted"><tspan x="0" dy="13">package.json</tspan></text>
              </g>
            </g>
            <g transform="translate(0, 246)">
              <g transform="translate(0, 9)"/>
              <g transform="translate(18, 2.5) scale(0.5416666666666666)" class="s-muted" stroke-width="3.692" stroke-linecap="round" stroke-linejoin="round">
                <path d="M13 2H6a2 2 0 0 0-2 2v16a2 2 0 0 0 2 2h12a2 2 0 0 0 2-2V9z" fill="none"/>
                <path d="M13 2v7h7" fill="none"/>
              </g>
              <g transform="translate(37, 0)">
                <text font-size="13" font-weight="400" font-family="system-ui, sans-serif" text-anchor="start" class="f-muted"><tspan x="0" dy="13">tsconfig.json</tspan></text>
              </g>
            </g>
            <g transform="translate(0, 270)">
              <g transform="translate(0, 9)"/>
              <g transform="translate(18, 2.5) scale(0.5416666666666666)" class="s-muted" stroke-width="3.692" stroke-linecap="round" stroke-linejoin="round">
                <path d="M13 2H6a2 2 0 0 0-2 2v16a2 2 0 0 0 2 2h12a2 2 0 0 0 2-2V9z" fill="none"/>
                <path d="M13 2v7h7" fill="none"/>
              </g>
              <g transform="translate(37, 0)">
                <text font-size="13" font-weight="400" font-family="system-ui, sans-serif" text-anchor="start" class="f-muted"><tspan x="0" dy="13">vite.config.ts</tspan></text>
              </g>
            </g>
          </g>
        </g>
      </g>
      <g transform="translate(0, 662)">
        <g transform="translate(0, 0)">
          <line x1="0" y1="0" x2="480" y2="0" stroke-width="1" class="s-subtle"/>
        </g>
        <g transform="translate(0, 11)">
          <text font-size="11" font-weight="normal" font-family="system-ui, sans-serif" text-anchor="middle" class="f-faint"><tspan x="240" dy="11">Everything you see here is an SVG — generated from src/main.frame</tspan></text>
        </g>
      </g>
    </g>
  </g>
</svg>