<svg xmlns="http://www.w3.org/2000/svg" viewBox="0 0 640 389" width="100%" style="max-width:640px">
  <style>
    .f-bg { fill: #0f172a; }
    .s-bg { stroke: #0f172a; }
    .f-surface { fill: #1e293b; }
    .s-surface { stroke: #1e293b; }
    .f-raised { fill: #334155; }
    .s-raised { stroke: #334155; }
    .f-subtle { fill: #475569; }
    .s-subtle { stroke: #475569; }
    .f-text { fill: #f8fafc; }
    .s-text { stroke: #f8fafc; }
    .f-muted { fill: #94a3b8; }
    .s-muted { stroke: #94a3b8; }
    .f-faint { fill: #475569; }
    .s-faint { stroke: #475569; }
    .f-accent { fill: #38bdf8; }
    .s-accent { stroke: #38bdf8; }
    .f-success { fill: #4ade80; }
    .s-success { stroke: #4ade80; }
    .f-warning { fill: #fbbf24; }
    .s-warning { stroke: #fbbf24; }
    .f-danger { fill: #f87171; }
    .s-danger { stroke: #f87171; }
    .f-accentBg { fill: #0c4a6e; }
    .s-accentBg { stroke: #0c4a6e; }
    .f-successBg { fill: #166534; }
    .s-successBg { stroke: #166534; }
    .f-warningBg { fill: #78350f; }
    .s-warningBg { stroke: #78350f; }
    .f-dangerBg { fill: #7f1d1d; }
    .s-dangerBg { stroke: #7f1d1d; }
    @media (prefers-color-scheme: light) {
      .f-bg { fill: #ffffff; }
      .s-bg { stroke: #ffffff; }
      .f-surface { fill: #f1f5f9; }
      .s-surface { stroke: #f1f5f9; }
      .f-raised { fill: #e2e8f0; }
      .s-raised { stroke: #e2e8f0; }
      .f-subtle { fill: #cbd5e1; }
      .s-subtle { stroke: #cbd5e1; }
      .f-text { fill: #0f172a; }
      .s-text { stroke: #0f172a; }
      .f-muted { fill: #64748b; }
      .s-muted { stroke: #64748b; }
      .f-faint { fill: #94a3b8; }
      .s-faint { stroke: #94a3b8; }
      .f-accent { fill: #0284c7; }
      .s-accent { stroke: #0284c7; }
      .f-success { fill: #16a34a; }
      .s-success { stroke: #16a34a; }
      .f-warning { fill: #d97706; }
      .s-warning { stroke: #d97706; }
      .f-danger { fill: #dc2626; }
      .s-danger { stroke: #dc2626; }
      .f-accentBg { fill: #e0f2fe; }
      .s-accentBg { stroke: #e0f2fe; }
      .f-successBg { fill: #dcfce7; }
      .s-successBg { stroke: #dcfce7; }
      .f-warningBg { fill: #fef3c7; }
      .s-warningBg { stroke: #fef3c7; }
      .f-dangerBg { fill: #fee2e2; }
      .s-dangerBg { stroke: #fee2e2; }
    }
  </style>
  <g transform="translate(0, 0)">
    <rect width="640" height="389" class="f-bg"/>
    <g transform="translate(28, 28)">
      <g transform="translate(0, 0)">
        <text font-size="10" font-weight="700" font-family="system-ui, sans-serif" text-anchor="start" class="f-faint"><tspan x="0" dy="10">COMPOUND · CALLOUT</tspan></text>
      </g>
      <g transform="translate(0, 26)">
        <line x1="0" y1="0" x2="584" y2="0" stroke-width="1" class="s-subtle"/>
      </g>
      <g transform="translate(0, 43)">
        <g transform="translate(0, 0)">
          <rect width="584" height="65" rx="8" class="f-accent"/>
          <g transform="translate(4, 0)">
            <rect width="580" height="65" rx="6" class="f-accentBg"/>
            <g transform="translate(16, 12)">
              <g transform="translate(0, 0)">
                <g transform="translate(0, 1.5) scale(0.5833333333333334)" class="s-accent" stroke-width="3.429" stroke-linecap="round" stroke-linejoin="round">
                  <path d="M12 22a10 10 0 1 1 0-20 10 10 0 0 1 0 20" fill="none"/>
                  <path d="M12 16v-4" fill="none"/>
                  <path d="M12 8h.01" fill="none"/>
                </g>
                <g transform="translate(20, 0)">
                  <text font-size="12" font-weight="700" font-family="system-ui, sans-serif" text-anchor="start" class="f-accent"><tspan x="0" dy="12">NOTE</tspan></text>
                </g>
              </g>
              <g transform="translate(0, 23)">
                <text font-size="13" font-weight="normal" font-family="system-ui, sans-serif" text-anchor="start" class="f-text"><tspan x="0" dy="13">This component requires Node.js 18 or higher to function correctly.</tspan></text>
              </g>
            </g>
          </g>
        </g>
        <g transform="translate(0, 75)">
          <rect width="584" height="65" rx="8" class="f-success"/>
          <g transform="translate(4, 0)">
            <rect width="580" height="65" rx="6" class="f-successBg"/>
            <g transform="translate(16, 12)">
              <g transform="translate(0, 0)">
                <g transform="translate(0, 1.5) scale(0.5833333333333334)" class="s-success" stroke-width="3.429" stroke-linecap="round" stroke-linejoin="round">
                  <path d="M15 14c.2-1 .7-1.7 1.5-2.5 1-.9 1.5-2.2 1.5-3.5A6 6 0 0 0 6 8c0 1 .2 2.2 1.5 3.5.7.7 1.3 1.5 1.5 2.5" fill="none"/>
                  <path d="M9 18h6" fill="none"/>
                  <path d="M10 22h4" fill="none"/>
                </g>
                <g transform="translate(20, 0)">
                  <text font-size="12" font-weight="700" font-family="system-ui, sans-serif" text-anchor="start" class="f-success"><tspan x="0" dy="12">TIP</tspan></text>
                </g>
              </g>
              <g transform="translate(0, 23)">
                <text font-size="13" font-weight="normal" font-family="system-ui, sans-serif" text-anchor="start" class="f-text"><tspan x="0" dy="13">Use the --watch flag to enable hot reload during development.</tspan></text>
              </g>
            </g>
          </g>
        </g>
        <g transform="translate(0, 150)">
          <rect width="584" height="65" rx="8" class="f-warning"/>
          <g transform="translate(4, 0)">
            <rect width="580" height="65" rx="6" class="f-warningBg"/>
            <g transform="translate(16, 12)">
              <g transform="translate(0, 0)">
                <g transform="translate(0, 1.5) scale(0.5833333333333334)" class="s-warning" stroke-width="3.429" stroke-linecap="round" stroke-linejoin="round">
                  <path d="M10.29 3.86 1.82 18a2 2 0 0 0 1.71 3h16.94a2 2 0 0 0 1.71-3L13.71 3.86a2 2 0 0 0-3.42 0z" fill="none"/>
                  <path d="M12 9v4" fill="none"/>
                  <path d="M12 17h.01" fill="none"/>
                </g>
                <g transform="translate(20, 0)">
                  <text font-size="12" font-weight="700" font-family="system-ui, sans-serif" text-anchor="start" class="f-warning"><tspan x="0" dy="12">WARNING</tspan></text>
                </g>
              </g>
              <g transform="translate(0, 23)">
                <text font-size="13" font-weight="normal" font-family="system-ui, sans-serif" text-anchor="start" class="f-text"><tspan x="0" dy="13">Changing this setting will restart all active connections immediately.</tspan></text>
              </g>
            </g>
          </g>
        </g>
        <g transform="translate(0, 225)">
          <rect width="584" height="65" rx="8" class="f-danger"/>
          <g transform="translate(4, 0)">
            <rect width="580" height="65" rx="6" class="f-dangerBg"/>
            <g transform="translate(16, 12)">
              <g transform="translate(0, 0)">
                <g transform="translate(0, 1.5) scale(0.5833333333333334)" class="s-danger" stroke-width="3.429" stroke-linecap="round" stroke-linejoin="round">
                  <path d="M6 8a6 6 0 0 1 12 0c0 7 3 9 3 9H3s3-2 3-9" fill="none"/>
                  <path d="M10.3 21a1.94 1.94 0 0 0 3.4 0" fill="none"/>
                </g>
                <g transform="translate(20, 0)">
                  <text font-size="12" font-weight="700" font-family="system-ui, sans-serif" text-anchor="start" class="f-danger"><tspan x="0" dy="12">IMPORTANT</tspan></text>
                </g>
              </g>
              <g transform="translate(0, 23)">
                <text font-size="13" font-weight="normal" font-family="system-ui, sans-serif" text-anchor="start" class="f-text"><tspan x="0" dy="13">Back up your data before running any database migration scripts.</tspan></text>
              </g>
            </g>
          </g>
        </g>
      </g>
    </g>
  </g>
</svg>