<svg xmlns="http://www.w3.org/2000/svg" viewBox="0 0 640 355" width="100%" style="max-width:640px">
  <style>
    .f-bg { fill: #0f172a; }
    .s-bg { stroke: #0f172a; }
    .f-surface { fill: #1e293b; }
    .s-surface { stroke: #1e293b; }
    .f-raised { fill: #334155; }
    .s-raised { stroke: #334155; }
    .f-subtle { fill: #475569; }
    .s-subtle { stroke: #475569; }
    .f-text { fill: #f8fafc; }
    .s-text { stroke: #f8fafc; }
    .f-muted { fill: #94a3b8; }
    .s-muted { stroke: #94a3b8; }
    .f-faint { fill: #475569; }
    .s-faint { stroke: #475569; }
    .f-accent { fill: #38bdf8; }
    .s-accent { stroke: #38bdf8; }
    .f-success { fill: #4ade80; }
    .s-success { stroke: #4ade80; }
    .f-warning { fill: #fbbf24; }
    .s-warning { stroke: #fbbf24; }
    .f-danger { fill: #f87171; }
    .s-danger { stroke: #f87171; }
    .f-accentBg { fill: #0c4a6e; }
    .s-accentBg { stroke: #0c4a6e; }
    .f-successBg { fill: #166534; }
    .s-successBg { stroke: #166534; }
    .f-warningBg { fill: #78350f; }
    .s-warningBg { stroke: #78350f; }
    .f-dangerBg { fill: #7f1d1d; }
    .s-dangerBg { stroke: #7f1d1d; }
    @media (prefers-color-scheme: light) {
      .f-bg { fill: #ffffff; }
      .s-bg { stroke: #ffffff; }
      .f-surface { fill: #f1f5f9; }
      .s-surface { stroke: #f1f5f9; }
      .f-raised { fill: #e2e8f0; }
      .s-raised { stroke: #e2e8f0; }
      .f-subtle { fill: #cbd5e1; }
      .s-subtle { stroke: #cbd5e1; }
      .f-text { fill: #0f172a; }
      .s-text { stroke: #0f172a; }
      .f-muted { fill: #64748b; }
      .s-muted { stroke: #64748b; }
      .f-faint { fill: #94a3b8; }
      .s-faint { stroke: #94a3b8; }
      .f-accent { fill: #0284c7; }
      .s-accent { stroke: #0284c7; }
      .f-success { fill: #16a34a; }
      .s-success { stroke: #16a34a; }
      .f-warning { fill: #d97706; }
      .s-warning { stroke: #d97706; }
      .f-danger { fill: #dc2626; }
      .s-danger { stroke: #dc2626; }
      .f-accentBg { fill: #e0f2fe; }
      .s-accentBg { stroke: #e0f2fe; }
      .f-successBg { fill: #dcfce7; }
      .s-successBg { stroke: #dcfce7; }
      .f-warningBg { fill: #fef3c7; }
      .s-warningBg { stroke: #fef3c7; }
      .f-dangerBg { fill: #fee2e2; }
      .s-dangerBg { stroke: #fee2e2; }
    }
  </style>
  <g transform="translate(0, 0)">
    <rect width="640" height="355" class="f-bg"/>
    <g transform="translate(28, 28)">
      <g transform="translate(0, 0)">
        <text font-size="10" font-weight="700" font-family="system-ui, sans-serif" text-anchor="start" class="f-faint"><tspan x="0" dy="10">COMPOUND · FILE TREE</tspan></text>
      </g>
      <g transform="translate(0, 26)">
        <line x1="0" y1="0" x2="584" y2="0" stroke-width="1" class="s-subtle"/>
      </g>
      <g transform="translate(0, 43)">
        <g transform="translate(0, 0)">
          <rect width="284" height="244" rx="10" class="f-surface"/>
          <g transform="translate(16, 14)">
            <g transform="translate(0, 0)">
              <g transform="translate(0, 2) scale(0.5833333333333334)" class="s-accent" stroke-width="3.429" stroke-linecap="round" stroke-linejoin="round">
                <path d="M22 19a2 2 0 0 1-2 2H4a2 2 0 0 1-2-2V5a2 2 0 0 1 2-2h5l2 3h9a2 2 0 0 1 2 2z" fill="none"/>
              </g>
              <g transform="translate(22, 0)">
                <text font-size="13" font-weight="700" font-family="system-ui, sans-serif" text-anchor="start" class="f-text"><tspan x="0" dy="13">my-project/</tspan></text>
              </g>
            </g>
            <g transform="translate(0, 24)">
              <g transform="translate(0, 9)"/>
              <g transform="translate(18, 2.5) scale(0.5416666666666666)" class="s-accent" stroke-width="3.692" stroke-linecap="round" stroke-linejoin="round">
                <path d="M22 19a2 2 0 0 1-2 2H4a2 2 0 0 1-2-2V5a2 2 0 0 1 2-2h5l2 3h9a2 2 0 0 1 2 2z" fill="none"/>
              </g>
              <g transform="translate(37, 0)">
                <text font-size="13" font-weight="600" font-family="system-ui, sans-serif" text-anchor="start" class="f-text"><tspan x="0" dy="13">src/</tspan></text>
              </g>
            </g>
            <g transform="translate(0, 48)">
              <rect width="252" height="24" rx="4" class="f-accentBg"/>
              <g transform="translate(0, 3)">
                <g transform="translate(0, 9)"/>
                <g transform="translate(36, 2.5) scale(0.5416666666666666)" class="s-accent" stroke-width="3.692" stroke-linecap="round" stroke-linejoin="round">
                  <path d="M13 2H6a2 2 0 0 0-2 2v16a2 2 0 0 0 2 2h12a2 2 0 0 0 2-2V9z" fill="none"/>
                  <path d="M13 2v7h7" fill="none"/>
                </g>
                <g transform="translate(55, 0)">
                  <text font-size="13" font-weight="400" font-family="system-ui, sans-serif" text-anchor="start" class="f-accent"><tspan x="0" dy="13">index.ts</tspan></text>
                </g>
                <g transform="translate(131.66666666666669, 1.5)">
                  <text font-size="11" font-weight="normal" font-family="system-ui, sans-serif" text-anchor="start" class="f-faint"><tspan x="0" dy="11">// entry point</tspan></text>
                </g>
              </g>
            </g>
            <g transform="translate(0, 78)">
              <g transform="translate(0, 9)"/>
              <g transform="translate(36, 2.5) scale(0.5416666666666666)" class="s-muted" stroke-width="3.692" stroke-linecap="round" stroke-linejoin="round">
                <path d="M13 2H6a2 2 0 0 0-2 2v16a2 2 0 0 0 2 2h12a2 2 0 0 0 2-2V9z" fill="none"/>
                <path d="M13 2v7h7" fill="none"/>
              </g>
              <g transform="translate(55, 0)">
                <text font-size="13" font-weight="400" font-family="system-ui, sans-serif" text-anchor="start" class="f-muted"><tspan x="0" dy="13">app.ts</tspan></text>
              </g>
            </g>
            <g transform="translate(0, 102)">
              <g transform="translate(0, 9)"/>
              <g transform="translate(36, 2.5) scale(0.5416666666666666)" class="s-accent" stroke-width="3.692" stroke-linecap="round" stroke-linejoin="round">
                <path d="M22 19a2 2 0 0 1-2 2H4a2 2 0 0 1-2-2V5a2 2 0 0 1 2-2h5l2 3h9a2 2 0 0 1 2 2z" fill="none"/>
              </g>
              <g transform="translate(55, 0)">
                <text font-size="13" font-weight="600" font-family="system-ui, sans-serif" text-anchor="start" class="f-text"><tspan x="0" dy="13">components/</tspan></text>
              </g>
            </g>
            <g transform="translate(0, 126)">
              <g transform="translate(0, 9)"/>
              <g transform="translate(54, 2.5) scale(0.5416666666666666)" class="s-muted" stroke-width="3.692" stroke-linecap="round" stroke-linejoin="round">
                <path d="M13 2H6a2 2 0 0 0-2 2v16a2 2 0 0 0 2 2h12a2 2 0 0 0 2-2V9z" fill="none"/>
                <path d="M13 2v7h7" fill="none"/>
              </g>
              <g transform="translate(73, 0)">
                <text font-size="13" font-weight="400" font-family="system-ui, sans-serif" text-anchor="start" class="f-muted"><tspan x="0" dy="13">Button.ts</tspan></text>
              </g>
            </g>
            <g transform="translate(0, 150)">
              <g transform="translate(0, 9)"/>
              <g transform="translate(54, 2.5) scale(0.5416666666666666)" class="s-muted" stroke-width="3.692" stroke-linecap="round" stroke-linejoin="round">
                <path d="M13 2H6a2 2 0 0 0-2 2v16a2 2 0 0 0 2 2h12a2 2 0 0 0 2-2V9z" fill="none"/>
                <path d="M13 2v7h7" fill="none"/>
              </g>
              <g transform="translate(73, 0)">
                <text font-size="13" font-weight="400" font-family="system-ui, sans-serif" text-anchor="start" class="f-muted"><tspan x="0" dy="13">Card.ts</tspan></text>
              </g>
            </g>
            <g transform="translate(0, 174)">
              <g transform="translate(0, 9)"/>
              <g transform="translate(18, 2.5) scale(0.5416666666666666)" class="s-muted" stroke-width="3.692" stroke-linecap="round" stroke-linejoin="round">
                <path d="M13 2H6a2 2 0 0 0-2 2v16a2 2 0 0 0 2 2h12a2 2 0 0 0 2-2V9z" fill="none"/>
                <path d="M13 2v7h7" fill="none"/>
              </g>
              <g transform="translate(37, 0)">
                <text font-size="13" font-weight="400" font-family="system-ui, sans-serif" text-anchor="start" class="f-muted"><tspan x="0" dy="13">package.json</tspan></text>
              </g>
            </g>
            <g transform="translate(0, 198)">
              <g transform="translate(0, 9)"/>
              <g transform="translate(18, 2.5) scale(0.5416666666666666)" class="s-muted" stroke-width="3.692" stroke-linecap="round" stroke-linejoin="round">
                <path d="M13 2H6a2 2 0 0 0-2 2v16a2 2 0 0 0 2 2h12a2 2 0 0 0 2-2V9z" fill="none"/>
                <path d="M13 2v7h7" fill="none"/>
              </g>
              <g transform="translate(37, 0)">
                <text font-size="13" font-weight="400" font-family="system-ui, sans-serif" text-anchor="start" class="f-muted"><tspan x="0" dy="13">tsconfig.json</tspan></text>
              </g>
            </g>
          </g>
        </g>
        <g transform="translate(300, 0)">
          <rect width="284" height="256" rx="10" class="f-surface"/>
          <g transform="translate(16, 14)">
            <g transform="translate(0, 0)">
              <g transform="translate(0, 2) scale(0.5833333333333334)" class="s-accent" stroke-width="3.429" stroke-linecap="round" stroke-linejoin="round">
                <path d="M22 19a2 2 0 0 1-2 2H4a2 2 0 0 1-2-2V5a2 2 0 0 1 2-2h5l2 3h9a2 2 0 0 1 2 2z" fill="none"/>
              </g>
              <g transform="translate(22, 0)">
                <text font-size="13" font-weight="700" font-family="system-ui, sans-serif" text-anchor="start" class="f-text"><tspan x="0" dy="13">api/</tspan></text>
              </g>
            </g>
            <g transform="translate(0, 24)">
              <g transform="translate(0, 9)"/>
              <g transform="translate(18, 2.5) scale(0.5416666666666666)" class="s-accent" stroke-width="3.692" stroke-linecap="round" stroke-linejoin="round">
                <path d="M22 19a2 2 0 0 1-2 2H4a2 2 0 0 1-2-2V5a2 2 0 0 1 2-2h5l2 3h9a2 2 0 0 1 2 2z" fill="none"/>
              </g>
              <g transform="translate(37, 0)">
                <text font-size="13" font-weight="600" font-family="system-ui, sans-serif" text-anchor="start" class="f-text"><tspan x="0" dy="13">routes/</tspan></text>
              </g>
            </g>
            <g transform="translate(0, 48)">
              <g transform="translate(0, 9)"/>
              <g transform="translate(36, 2.5) scale(0.5416666666666666)" class="s-muted" stroke-width="3.692" stroke-linecap="round" stroke-linejoin="round">
                <path d="M13 2H6a2 2 0 0 0-2 2v16a2 2 0 0 0 2 2h12a2 2 0 0 0 2-2V9z" fill="none"/>
                <path d="M13 2v7h7" fill="none"/>
              </g>
              <g transform="translate(55, 0)">
                <text font-size="13" font-weight="400" font-family="system-ui, sans-serif" text-anchor="start" class="f-muted"><tspan x="0" dy="13">auth.ts</tspan></text>
              </g>
            </g>
            <g transform="translate(0, 72)">
              <rect width="252" height="24" rx="4" class="f-accentBg"/>
              <g transform="translate(0, 3)">
                <g transform="translate(0, 9)"/>
                <g transform="translate(36, 2.5) scale(0.5416666666666666)" class="s-accent" stroke-width="3.692" stroke-linecap="round" stroke-linejoin="round">
                  <path d="M13 2H6a2 2 0 0 0-2 2v16a2 2 0 0 0 2 2h12a2 2 0 0 0 2-2V9z" fill="none"/>
                  <path d="M13 2v7h7" fill="none"/>
                </g>
                <g transform="translate(55, 0)">
                  <text font-size="13" font-weight="400" font-family="system-ui, sans-serif" text-anchor="start" class="f-accent"><tspan x="0" dy="13">users.ts</tspan></text>
                </g>
              </g>
            </g>
            <g transform="translate(0, 102)">
              <g transform="translate(0, 9)"/>
              <g transform="translate(18, 2.5) scale(0.5416666666666666)" class="s-accent" stroke-width="3.692" stroke-linecap="round" stroke-linejoin="round">
                <path d="M22 19a2 2 0 0 1-2 2H4a2 2 0 0 1-2-2V5a2 2 0 0 1 2-2h5l2 3h9a2 2 0 0 1 2 2z" fill="none"/>
              </g>
              <g transform="translate(37, 0)">
                <text font-size="13" font-weight="600" font-family="system-ui, sans-serif" text-anchor="start" class="f-text"><tspan x="0" dy="13">middleware/</tspan></text>
              </g>
            </g>
            <g transform="translate(0, 126)">
              <g transform="translate(0, 9)"/>
              <g transform="translate(36, 2.5) scale(0.5416666666666666)" class="s-muted" stroke-width="3.692" stroke-linecap="round" stroke-linejoin="round">
                <path d="M13 2H6a2 2 0 0 0-2 2v16a2 2 0 0 0 2 2h12a2 2 0 0 0 2-2V9z" fill="none"/>
                <path d="M13 2v7h7" fill="none"/>
              </g>
              <g transform="translate(55, 0)">
                <text font-size="13" font-weight="400" font-family="system-ui, sans-serif" text-anchor="start" class="f-muted"><tspan x="0" dy="13">auth.ts</tspan></text>
              </g>
            </g>
            <g transform="translate(0, 150)">
              <g transform="translate(0, 9)"/>
              <g transform="translate(36, 2.5) scale(0.5416666666666666)" class="s-muted" stroke-width="3.692" stroke-linecap="round" stroke-linejoin="round">
                <path d="M13 2H6a2 2 0 0 0-2 2v16a2 2 0 0 0 2 2h12a2 2 0 0 0 2-2V9z" fill="none"/>
                <path d="M13 2v7h7" fill="none"/>
              </g>
              <g transform="translate(55, 0)">
                <text font-size="13" font-weight="400" font-family="system-ui, sans-serif" text-anchor="start" class="f-muted"><tspan x="0" dy="13">logger.ts</tspan></text>
              </g>
            </g>
            <g transform="translate(0, 174)">
              <g transform="translate(0, 9)"/>
              <g transform="translate(18, 2.5) scale(0.5416666666666666)" class="s-accent" stroke-width="3.692" stroke-linecap="round" stroke-linejoin="round">
                <path d="M22 19a2 2 0 0 1-2 2H4a2 2 0 0 1-2-2V5a2 2 0 0 1 2-2h5l2 3h9a2 2 0 0 1 2 2z" fill="none"/>
              </g>
              <g transform="translate(37, 0)">
                <text font-size="13" font-weight="600" font-family="system-ui, sans-serif" text-anchor="start" class="f-text"><tspan x="0" dy="13">db/</tspan></text>
              </g>
            </g>
            <g transform="translate(0, 198)">
              <g transform="translate(0, 15)"/>
              <g transform="translate(36, 8.5) scale(0.5416666666666666)" class="s-muted" stroke-width="3.692" stroke-linecap="round" stroke-linejoin="round">
                <path d="M13 2H6a2 2 0 0 0-2 2v16a2 2 0 0 0 2 2h12a2 2 0 0 0 2-2V9z" fill="none"/>
                <path d="M13 2v7h7" fill="none"/>
              </g>
              <g transform="translate(55, 6)">
                <text font-size="13" font-weight="400" font-family="system-ui, sans-serif" text-anchor="start" class="f-muted"><tspan x="0" dy="13">schema.ts</tspan></text>
              </g>
              <g transform="translate(131.66666666666669, 0)">
                <text font-size="11" font-weight="normal" font-family="system-ui, sans-serif" text-anchor="start" class="f-faint"><tspan x="0" dy="11">// Drizzle</tspan><tspan x="0" dy="15">ORM</tspan></text>
              </g>
            </g>
          </g>
        </g>
      </g>
    </g>
  </g>
</svg>