<svg xmlns="http://www.w3.org/2000/svg" viewBox="0 0 640 534" width="100%" style="max-width:640px">
  <style>
    .f-bg { fill: #0f172a; }
    .s-bg { stroke: #0f172a; }
    .f-surface { fill: #1e293b; }
    .s-surface { stroke: #1e293b; }
    .f-raised { fill: #334155; }
    .s-raised { stroke: #334155; }
    .f-subtle { fill: #475569; }
    .s-subtle { stroke: #475569; }
    .f-text { fill: #f8fafc; }
    .s-text { stroke: #f8fafc; }
    .f-muted { fill: #94a3b8; }
    .s-muted { stroke: #94a3b8; }
    .f-faint { fill: #475569; }
    .s-faint { stroke: #475569; }
    .f-accent { fill: #38bdf8; }
    .s-accent { stroke: #38bdf8; }
    .f-success { fill: #4ade80; }
    .s-success { stroke: #4ade80; }
    .f-warning { fill: #fbbf24; }
    .s-warning { stroke: #fbbf24; }
    .f-danger { fill: #f87171; }
    .s-danger { stroke: #f87171; }
    .f-accentBg { fill: #0c4a6e; }
    .s-accentBg { stroke: #0c4a6e; }
    .f-successBg { fill: #166534; }
    .s-successBg { stroke: #166534; }
    .f-warningBg { fill: #78350f; }
    .s-warningBg { stroke: #78350f; }
    .f-dangerBg { fill: #7f1d1d; }
    .s-dangerBg { stroke: #7f1d1d; }
    @media (prefers-color-scheme: light) {
      .f-bg { fill: #ffffff; }
      .s-bg { stroke: #ffffff; }
      .f-surface { fill: #f1f5f9; }
      .s-surface { stroke: #f1f5f9; }
      .f-raised { fill: #e2e8f0; }
      .s-raised { stroke: #e2e8f0; }
      .f-subtle { fill: #cbd5e1; }
      .s-subtle { stroke: #cbd5e1; }
      .f-text { fill: #0f172a; }
      .s-text { stroke: #0f172a; }
      .f-muted { fill: #64748b; }
      .s-muted { stroke: #64748b; }
      .f-faint { fill: #94a3b8; }
      .s-faint { stroke: #94a3b8; }
      .f-accent { fill: #0284c7; }
      .s-accent { stroke: #0284c7; }
      .f-success { fill: #16a34a; }
      .s-success { stroke: #16a34a; }
      .f-warning { fill: #d97706; }
      .s-warning { stroke: #d97706; }
      .f-danger { fill: #dc2626; }
      .s-danger { stroke: #dc2626; }
      .f-accentBg { fill: #e0f2fe; }
      .s-accentBg { stroke: #e0f2fe; }
      .f-successBg { fill: #dcfce7; }
      .s-successBg { stroke: #dcfce7; }
      .f-warningBg { fill: #fef3c7; }
      .s-warningBg { stroke: #fef3c7; }
      .f-dangerBg { fill: #fee2e2; }
      .s-dangerBg { stroke: #fee2e2; }
    }
  </style>
  <g transform="translate(0, 0)">
    <rect width="640" height="534" class="f-bg"/>
    <g transform="translate(28, 28)">
      <g transform="translate(0, 0)">
        <text font-size="10" font-weight="700" font-family="system-ui, sans-serif" text-anchor="start" class="f-faint"><tspan x="0" dy="10">PRIMITIVO · ICON</tspan></text>
      </g>
      <g transform="translate(0, 26)">
        <line x1="0" y1="0" x2="584" y2="0" stroke-width="1" class="s-subtle"/>
      </g>
      <g transform="translate(0, 43)">
        <g transform="translate(0, 0)">
          <rect width="584" height="287" rx="10" class="f-surface"/>
          <g transform="translate(16, 14)">
            <g transform="translate(0, 0)">
              <g transform="translate(29.333333333333336, 0) scale(0.8333333333333334)" class="s-text" stroke-width="2.4" stroke-linecap="round" stroke-linejoin="round">
                <path d="M12 22a10 10 0 1 1 0-20 10 10 0 0 1 0 20" fill="none"/>
                <path d="M12 16v-4" fill="none"/>
                <path d="M12 8h.01" fill="none"/>
              </g>
              <g transform="translate(0, 26)">
                <text font-size="9" font-weight="normal" font-family="system-ui, sans-serif" text-anchor="middle" class="f-faint"><tspan x="39.333333333333336" dy="9">info</tspan></text>
              </g>
            </g>
            <g transform="translate(94.66666666666667, 0)">
              <g transform="translate(29.333333333333336, 0) scale(0.8333333333333334)" class="s-text" stroke-width="2.4" stroke-linecap="round" stroke-linejoin="round">
                <path d="M15 14c.2-1 .7-1.7 1.5-2.5 1-.9 1.5-2.2 1.5-3.5A6 6 0 0 0 6 8c0 1 .2 2.2 1.5 3.5.7.7 1.3 1.5 1.5 2.5" fill="none"/>
                <path d="M9 18h6" fill="none"/>
                <path d="M10 22h4" fill="none"/>
              </g>
              <g transform="translate(0, 26)">
                <text font-size="9" font-weight="normal" font-family="system-ui, sans-serif" text-anchor="middle" class="f-faint"><tspan x="39.333333333333336" dy="9">lightbulb</tspan></text>
              </g>
            </g>
            <g transform="translate(189.33333333333334, 0)">
              <g transform="translate(29.333333333333336, 0) scale(0.8333333333333334)" class="s-text" stroke-width="2.4" stroke-linecap="round" stroke-linejoin="round">
                <path d="M10.29 3.86 1.82 18a2 2 0 0 0 1.71 3h16.94a2 2 0 0 0 1.71-3L13.71 3.86a2 2 0 0 0-3.42 0z" fill="none"/>
                <path d="M12 9v4" fill="none"/>
                <path d="M12 17h.01" fill="none"/>
              </g>
              <g transform="translate(0, 26)">
                <text font-size="9" font-weight="normal" font-family="system-ui, sans-serif" text-anchor="middle" class="f-faint"><tspan x="39.333333333333336" dy="9">triangle-alert</tspan></text>
              </g>
            </g>
            <g transform="translate(284, 0)">
              <g transform="translate(29.333333333333336, 0) scale(0.8333333333333334)" class="s-text" stroke-width="2.4" stroke-linecap="round" stroke-linejoin="round">
                <path d="M6 8a6 6 0 0 1 12 0c0 7 3 9 3 9H3s3-2 3-9" fill="none"/>
                <path d="M10.3 21a1.94 1.94 0 0 0 3.4 0" fill="none"/>
              </g>
              <g transform="translate(0, 26)">
                <text font-size="9" font-weight="normal" font-family="system-ui, sans-serif" text-anchor="middle" class="f-faint"><tspan x="39.333333333333336" dy="9">bell</tspan></text>
              </g>
            </g>
            <g transform="translate(378.6666666666667, 0)">
              <g transform="translate(29.333333333333336, 0) scale(0.8333333333333334)" class="s-text" stroke-width="2.4" stroke-linecap="round" stroke-linejoin="round">
                <path d="M20 6 9 17l-5-5" fill="none"/>
              </g>
              <g transform="translate(0, 26)">
                <text font-size="9" font-weight="normal" font-family="system-ui, sans-serif" text-anchor="middle" class="f-faint"><tspan x="39.333333333333336" dy="9">check</tspan></text>
              </g>
            </g>
            <g transform="translate(473.33333333333337, 0)">
              <g transform="translate(29.333333333333336, 0) scale(0.8333333333333334)" class="s-text" stroke-width="2.4" stroke-linecap="round" stroke-linejoin="round">
                <path d="M18 6 6 18" fill="none"/>
                <path d="M6 6l12 12" fill="none"/>
              </g>
              <g transform="translate(0, 26)">
                <text font-size="9" font-weight="normal" font-family="system-ui, sans-serif" text-anchor="middle" class="f-faint"><tspan x="39.333333333333336" dy="9">x</tspan></text>
              </g>
            </g>
            <g transform="translate(0, 55)">
              <g transform="translate(29.333333333333336, 0) scale(0.8333333333333334)" class="s-text" stroke-width="2.4" stroke-linecap="round" stroke-linejoin="round">
                <path d="M12 2l3.09 6.26L22 9.27l-5 4.87 1.18 6.88L12 17.77l-6.18 3.25L7 14.14 2 9.27l6.91-1.01L12 2z" fill="none"/>
              </g>
              <g transform="translate(0, 26)">
                <text font-size="9" font-weight="normal" font-family="system-ui, sans-serif" text-anchor="middle" class="f-faint"><tspan x="39.333333333333336" dy="9">star</tspan></text>
              </g>
            </g>
            <g transform="translate(94.66666666666667, 55)">
              <g transform="translate(29.333333333333336, 0) scale(0.8333333333333334)" class="s-text" stroke-width="2.4" stroke-linecap="round" stroke-linejoin="round">
                <path d="M8.5 14.5A2.5 2.5 0 0 0 11 12c0-1.38-.5-2-1-3-1.072-2.143-.224-4.054 2-6 .5 2.5 2 4.9 4 6.5 2 1.6 3 3.5 3 5.5a7 7 0 1 1-14 0c0-1.153.433-2.294 1-3a2.5 2.5 0 0 0 2.5 2.5z" fill="none"/>
              </g>
              <g transform="translate(0, 26)">
                <text font-size="9" font-weight="normal" font-family="system-ui, sans-serif" text-anchor="middle" class="f-faint"><tspan x="39.333333333333336" dy="9">flame</tspan></text>
              </g>
            </g>
            <g transform="translate(189.33333333333334, 55)">
              <g transform="translate(29.333333333333336, 0) scale(0.8333333333333334)" class="s-text" stroke-width="2.4" stroke-linecap="round" stroke-linejoin="round">
                <path d="M13 2 3 14h9l-1 8 10-12h-9l1-8z" fill="none"/>
              </g>
              <g transform="translate(0, 26)">
                <text font-size="9" font-weight="normal" font-family="system-ui, sans-serif" text-anchor="middle" class="f-faint"><tspan x="39.333333333333336" dy="9">zap</tspan></text>
              </g>
            </g>
            <g transform="translate(284, 55)">
              <g transform="translate(29.333333333333336, 0) scale(0.8333333333333334)" class="s-text" stroke-width="2.4" stroke-linecap="round" stroke-linejoin="round">
                <path d="M21 15v4a2 2 0 0 1-2 2H5a2 2 0 0 1-2-2v-4" fill="none"/>
                <path d="M7 10l5 5 5-5" fill="none"/>
                <path d="M12 15V3" fill="none"/>
              </g>
              <g transform="translate(0, 26)">
                <text font-size="9" font-weight="normal" font-family="system-ui, sans-serif" text-anchor="middle" class="f-faint"><tspan x="39.333333333333336" dy="9">download</tspan></text>
              </g>
            </g>
            <g transform="translate(378.6666666666667, 55)">
              <g transform="translate(29.333333333333336, 0) scale(0.8333333333333334)" class="s-text" stroke-width="2.4" stroke-linecap="round" stroke-linejoin="round">
                <path d="M10 13a5 5 0 0 0 7.54.54l3-3a5 5 0 0 0-7.07-7.07l-1.72 1.71" fill="none"/>
                <path d="M14 11a5 5 0 0 0-7.54-.54l-3 3a5 5 0 0 0 7.07 7.07l1.71-1.71" fill="none"/>
              </g>
              <g transform="translate(0, 26)">
                <text font-size="9" font-weight="normal" font-family="system-ui, sans-serif" text-anchor="middle" class="f-faint"><tspan x="39.333333333333336" dy="9">link</tspan></text>
              </g>
            </g>
            <g transform="translate(473.33333333333337, 55)">
              <g transform="translate(29.333333333333336, 0) scale(0.8333333333333334)" class="s-text" stroke-width="2.4" stroke-linecap="round" stroke-linejoin="round">
                <path d="M5 12h14" fill="none"/>
                <path d="M12 5l7 7-7 7" fill="none"/>
              </g>
              <g transform="translate(0, 26)">
                <text font-size="9" font-weight="normal" font-family="system-ui, sans-serif" text-anchor="middle" class="f-faint"><tspan x="39.333333333333336" dy="9">arrow-right</tspan></text>
              </g>
            </g>
            <g transform="translate(0, 110)">
              <g transform="translate(29.333333333333336, 0) scale(0.8333333333333334)" class="s-text" stroke-width="2.4" stroke-linecap="round" stroke-linejoin="round">
                <path d="M19 12H5" fill="none"/>
                <path d="M12 19l-7-7 7-7" fill="none"/>
              </g>
              <g transform="translate(0, 26)">
                <text font-size="9" font-weight="normal" font-family="system-ui, sans-serif" text-anchor="middle" class="f-faint"><tspan x="39.333333333333336" dy="9">arrow-left</tspan></text>
              </g>
            </g>
            <g transform="translate(94.66666666666667, 110)">
              <g transform="translate(29.333333333333336, 0) scale(0.8333333333333334)" class="s-text" stroke-width="2.4" stroke-linecap="round" stroke-linejoin="round">
                <path d="M12 19V5" fill="none"/>
                <path d="M5 12l7-7 7 7" fill="none"/>
              </g>
              <g transform="translate(0, 26)">
                <text font-size="9" font-weight="normal" font-family="system-ui, sans-serif" text-anchor="middle" class="f-faint"><tspan x="39.333333333333336" dy="9">arrow-up</tspan></text>
              </g>
            </g>
            <g transform="translate(189.33333333333334, 110)">
              <g transform="translate(29.333333333333336, 0) scale(0.8333333333333334)" class="s-text" stroke-width="2.4" stroke-linecap="round" stroke-linejoin="round">
                <path d="M12 5v14" fill="none"/>
                <path d="M19 12l-7 7-7-7" fill="none"/>
              </g>
              <g transform="translate(0, 26)">
                <text font-size="9" font-weight="normal" font-family="system-ui, sans-serif" text-anchor="middle" class="f-faint"><tspan x="39.333333333333336" dy="9">arrow-down</tspan></text>
              </g>
            </g>
            <g transform="translate(284, 110)">
              <g transform="translate(29.333333333333336, 0) scale(0.8333333333333334)" class="s-text" stroke-width="2.4" stroke-linecap="round" stroke-linejoin="round">
                <path d="M16 18l6-6-6-6" fill="none"/>
                <path d="M8 6l-6 6 6 6" fill="none"/>
              </g>
              <g transform="translate(0, 26)">
                <text font-size="9" font-weight="normal" font-family="system-ui, sans-serif" text-anchor="middle" class="f-faint"><tspan x="39.333333333333336" dy="9">code</tspan></text>
              </g>
            </g>
            <g transform="translate(378.6666666666667, 110)">
              <g transform="translate(29.333333333333336, 0) scale(0.8333333333333334)" class="s-text" stroke-width="2.4" stroke-linecap="round" stroke-linejoin="round">
                <path d="M4 17l6-6-6-6" fill="none"/>
                <path d="M12 19h8" fill="none"/>
              </g>
              <g transform="translate(0, 26)">
                <text font-size="9" font-weight="normal" font-family="system-ui, sans-serif" text-anchor="middle" class="f-faint"><tspan x="39.333333333333336" dy="9">terminal</tspan></text>
              </g>
            </g>
            <g transform="translate(473.33333333333337, 110)">
              <g transform="translate(29.333333333333336, 0) scale(0.8333333333333334)" class="s-text" stroke-width="2.4" stroke-linecap="round" stroke-linejoin="round">
                <path d="M13 2H6a2 2 0 0 0-2 2v16a2 2 0 0 0 2 2h12a2 2 0 0 0 2-2V9z" fill="none"/>
                <path d="M13 2v7h7" fill="none"/>
              </g>
              <g transform="translate(0, 26)">
                <text font-size="9" font-weight="normal" font-family="system-ui, sans-serif" text-anchor="middle" class="f-faint"><tspan x="39.333333333333336" dy="9">file</tspan></text>
              </g>
            </g>
            <g transform="translate(0, 165)">
              <g transform="translate(29.333333333333336, 0) scale(0.8333333333333334)" class="s-text" stroke-width="2.4" stroke-linecap="round" stroke-linejoin="round">
                <path d="M22 19a2 2 0 0 1-2 2H4a2 2 0 0 1-2-2V5a2 2 0 0 1 2-2h5l2 3h9a2 2 0 0 1 2 2z" fill="none"/>
              </g>
              <g transform="translate(0, 26)">
                <text font-size="9" font-weight="normal" font-family="system-ui, sans-serif" text-anchor="middle" class="f-faint"><tspan x="39.333333333333336" dy="9">folder</tspan></text>
              </g>
            </g>
            <g transform="translate(94.66666666666667, 165)">
              <g transform="translate(29.333333333333336, 0) scale(0.8333333333333334)" class="s-text" stroke-width="2.4" stroke-linecap="round" stroke-linejoin="round">
                <path d="M20.59 13.41l-7.17 7.17a2 2 0 0 1-2.83 0L2 12V2h10l8.59 8.59a2 2 0 0 1 0 2.82z" fill="none"/>
                <path d="M7 7h.01" fill="none"/>
              </g>
              <g transform="translate(0, 26)">
                <text font-size="9" font-weight="normal" font-family="system-ui, sans-serif" text-anchor="middle" class="f-faint"><tspan x="39.333333333333336" dy="9">tag</tspan></text>
              </g>
            </g>
            <g transform="translate(189.33333333333334, 165)">
              <g transform="translate(29.333333333333336, 0) scale(0.8333333333333334)" class="s-text" stroke-width="2.4" stroke-linecap="round" stroke-linejoin="round">
                <path d="M21 16V8a2 2 0 0 0-1-1.73l-7-4a2 2 0 0 0-2 0l-7 4A2 2 0 0 0 3 8v8a2 2 0 0 0 1 1.73l7 4a2 2 0 0 0 2 0l7-4A2 2 0 0 0 21 16z" fill="none"/>
                <path d="M3.27 6.96 12 12.01 20.73 6.96" fill="none"/>
                <path d="M12 22.08V12" fill="none"/>
              </g>
              <g transform="translate(0, 26)">
                <text font-size="9" font-weight="normal" font-family="system-ui, sans-serif" text-anchor="middle" class="f-faint"><tspan x="39.333333333333336" dy="9">package</tspan></text>
              </g>
            </g>
            <g transform="translate(284, 165)">
              <g transform="translate(29.333333333333336, 0) scale(0.8333333333333334)" class="s-text" stroke-width="2.4" stroke-linecap="round" stroke-linejoin="round">
                <path d="M12 22s8-4 8-10V5l-8-3-8 3v7c0 6 8 10 8 10z" fill="none"/>
              </g>
              <g transform="translate(0, 26)">
                <text font-size="9" font-weight="normal" font-family="system-ui, sans-serif" text-anchor="middle" class="f-faint"><tspan x="39.333333333333336" dy="9">shield</tspan></text>
              </g>
            </g>
            <g transform="translate(378.6666666666667, 165)">
              <g transform="translate(29.333333333333336, 0) scale(0.8333333333333334)" class="s-text" stroke-width="2.4" stroke-linecap="round" stroke-linejoin="round">
                <path d="M19 11H5a2 2 0 0 0-2 2v7a2 2 0 0 0 2 2h14a2 2 0 0 0 2-2v-7a2 2 0 0 0-2-2z" fill="none"/>
                <path d="M7 11V7a5 5 0 0 1 10 0v4" fill="none"/>
              </g>
              <g transform="translate(0, 26)">
                <text font-size="9" font-weight="normal" font-family="system-ui, sans-serif" text-anchor="middle" class="f-faint"><tspan x="39.333333333333336" dy="9">lock</tspan></text>
              </g>
            </g>
            <g transform="translate(473.33333333333337, 165)">
              <g transform="translate(29.333333333333336, 0) scale(0.8333333333333334)" class="s-text" stroke-width="2.4" stroke-linecap="round" stroke-linejoin="round">
                <path d="M20 21v-2a4 4 0 0 0-4-4H8a4 4 0 0 0-4 4v2" fill="none"/>
                <path d="M12 11a4 4 0 1 0 0-8 4 4 0 0 0 0 8z" fill="none"/>
              </g>
              <g transform="translate(0, 26)">
                <text font-size="9" font-weight="normal" font-family="system-ui, sans-serif" text-anchor="middle" class="f-faint"><tspan x="39.333333333333336" dy="9">user</tspan></text>
              </g>
            </g>
            <g transform="translate(0, 220)">
              <g transform="translate(29.333333333333336, 0) scale(0.8333333333333334)" class="s-text" stroke-width="2.4" stroke-linecap="round" stroke-linejoin="round">
                <path d="M17 21v-2a4 4 0 0 0-4-4H5a4 4 0 0 0-4 4v2" fill="none"/>
                <path d="M9 3a4 4 0 1 0 0 8 4 4 0 0 0 0-8z" fill="none"/>
                <path d="M23 21v-2a4 4 0 0 0-3-3.87" fill="none"/>
                <path d="M16 3.13a4 4 0 0 1 0 7.75" fill="none"/>
              </g>
              <g transform="translate(0, 26)">
                <text font-size="9" font-weight="normal" font-family="system-ui, sans-serif" text-anchor="middle" class="f-faint"><tspan x="39.333333333333336" dy="9">users</tspan></text>
              </g>
            </g>
            <g transform="translate(94.66666666666667, 220)">
              <g transform="translate(29.333333333333336, 0) scale(0.8333333333333334)" class="s-text" stroke-width="2.4" stroke-linecap="round" stroke-linejoin="round">
                <path d="M12 22a10 10 0 1 1 0-20 10 10 0 0 1 0 20" fill="none"/>
                <path d="M12 6v6l4 2" fill="none"/>
              </g>
              <g transform="translate(0, 26)">
                <text font-size="9" font-weight="normal" font-family="system-ui, sans-serif" text-anchor="middle" class="f-faint"><tspan x="39.333333333333336" dy="9">clock</tspan></text>
              </g>
            </g>
          </g>
        </g>
        <g transform="translate(0, 303)">
          <g transform="translate(0, 10) scale(0.5)" class="s-accent" stroke-width="4" stroke-linecap="round" stroke-linejoin="round">
            <path d="M12 2l3.09 6.26L22 9.27l-5 4.87 1.18 6.88L12 17.77l-6.18 3.25L7 14.14 2 9.27l6.91-1.01L12 2z" fill="none"/>
          </g>
          <g transform="translate(20, 8) scale(0.6666666666666666)" class="s-accent" stroke-width="3" stroke-linecap="round" stroke-linejoin="round">
            <path d="M12 2l3.09 6.26L22 9.27l-5 4.87 1.18 6.88L12 17.77l-6.18 3.25L7 14.14 2 9.27l6.91-1.01L12 2z" fill="none"/>
          </g>
          <g transform="translate(44, 6) scale(0.8333333333333334)" class="s-accent" stroke-width="2.4" stroke-linecap="round" stroke-linejoin="round">
            <path d="M12 2l3.09 6.26L22 9.27l-5 4.87 1.18 6.88L12 17.77l-6.18 3.25L7 14.14 2 9.27l6.91-1.01L12 2z" fill="none"/>
          </g>
          <g transform="translate(72, 4) scale(1)" class="s-accent" stroke-width="2" stroke-linecap="round" stroke-linejoin="round">
            <path d="M12 2l3.09 6.26L22 9.27l-5 4.87 1.18 6.88L12 17.77l-6.18 3.25L7 14.14 2 9.27l6.91-1.01L12 2z" fill="none"/>
          </g>
          <g transform="translate(104, 0) scale(1.3333333333333333)" class="s-accent" stroke-width="1.5" stroke-linecap="round" stroke-linejoin="round">
            <path d="M12 2l3.09 6.26L22 9.27l-5 4.87 1.18 6.88L12 17.77l-6.18 3.25L7 14.14 2 9.27l6.91-1.01L12 2z" fill="none"/>
          </g>
          <g transform="translate(144, 12)"/>
          <g transform="translate(160, 2)">
            <text font-size="10" font-weight="normal" font-family="system-ui, sans-serif" text-anchor="start" class="f-faint"><tspan x="0" dy="10">12 · 16 · 20 · 24</tspan><tspan x="0" dy="14">· 32</tspan></text>
          </g>
        </g>
        <g transform="translate(0, 351)">
          <g transform="translate(0, 31) scale(0.9166666666666666)" class="s-text" stroke-width="2.182" stroke-linecap="round" stroke-linejoin="round">
            <path d="M12 22s8-4 8-10V5l-8-3-8 3v7c0 6 8 10 8 10z" fill="none"/>
          </g>
          <g transform="translate(38, 31) scale(0.9166666666666666)" class="s-accent" stroke-width="2.182" stroke-linecap="round" stroke-linejoin="round">
            <path d="M12 22s8-4 8-10V5l-8-3-8 3v7c0 6 8 10 8 10z" fill="none"/>
          </g>
          <g transform="translate(76, 31) scale(0.9166666666666666)" class="s-success" stroke-width="2.182" stroke-linecap="round" stroke-linejoin="round">
            <path d="M12 22s8-4 8-10V5l-8-3-8 3v7c0 6 8 10 8 10z" fill="none"/>
          </g>
          <g transform="translate(114, 31) scale(0.9166666666666666)" class="s-warning" stroke-width="2.182" stroke-linecap="round" stroke-linejoin="round">
            <path d="M12 22s8-4 8-10V5l-8-3-8 3v7c0 6 8 10 8 10z" fill="none"/>
          </g>
          <g transform="translate(152, 31) scale(0.9166666666666666)" class="s-danger" stroke-width="2.182" stroke-linecap="round" stroke-linejoin="round">
            <path d="M12 22s8-4 8-10V5l-8-3-8 3v7c0 6 8 10 8 10z" fill="none"/>
          </g>
          <g transform="translate(190, 31) scale(0.9166666666666666)" class="s-muted" stroke-width="2.182" stroke-linecap="round" stroke-linejoin="round">
            <path d="M12 22s8-4 8-10V5l-8-3-8 3v7c0 6 8 10 8 10z" fill="none"/>
          </g>
          <g transform="translate(228, 40)"/>
          <g transform="translate(248, 0)">
            <text font-size="10" font-weight="normal" font-family="system-ui, sans-serif" text-anchor="start" class="f-faint"><tspan x="0" dy="10">$text ·</tspan><tspan x="0" dy="14">$accent ·</tspan><tspan x="0" dy="14">$success ·</tspan><tspan x="0" dy="14">$warning ·</tspan><tspan x="0" dy="14">$danger ·</tspan><tspan x="0" dy="14">$muted</tspan></text>
          </g>
        </g>
      </g>
    </g>
  </g>
</svg>